<svg width="156" height="156" viewBox="0 0 156 156" fill="none" xmlns="http://www.w3.org/2000/svg">
<g clip-path="url(#clip0_469_722)">
<path d="M149.5 104C148.494 104 147.502 103.766 146.601 103.318L133.601 96.8175C132.058 96.0469 130.885 94.695 130.338 93.0591C129.792 91.4232 129.918 89.6374 130.689 88.0945C131.46 86.5516 132.812 85.378 134.447 84.8319C136.083 84.2858 137.869 84.4119 139.412 85.1825L152.412 91.6825C153.724 92.3364 154.777 93.4148 155.399 94.7423C156.021 96.0699 156.176 97.5687 155.838 98.9955C155.501 100.422 154.691 101.693 153.541 102.601C152.39 103.51 150.966 104.003 149.5 104ZM139.406 44.85L152.406 38.35C153.948 37.5794 155.122 36.2275 155.668 34.5916C156.214 32.9557 156.088 31.1699 155.318 29.627C154.547 28.0841 153.195 26.9105 151.559 26.3644C149.923 25.8183 148.137 25.9444 146.595 26.715L133.595 33.215C132.052 33.9856 130.878 35.3375 130.332 36.9734C129.786 38.6093 129.912 40.3951 130.683 41.938C131.453 43.4809 132.805 44.6545 134.441 45.2006C136.077 45.7467 137.863 45.6206 139.406 44.85ZM156 65C156 63.2761 155.315 61.6228 154.096 60.4038C152.877 59.1848 151.224 58.5 149.5 58.5H136.5C134.776 58.5 133.123 59.1848 131.904 60.4038C130.685 61.6228 130 63.2761 130 65C130 66.7239 130.685 68.3772 131.904 69.5962C133.123 70.8152 134.776 71.5 136.5 71.5H149.5C151.224 71.5 152.877 70.8152 154.096 69.5962C155.315 68.3772 156 66.7239 156 65ZM117 123.5V6.5C117 4.77609 116.315 3.12279 115.096 1.90381C113.877 0.68482 112.224 0 110.5 0C108.776 0 107.123 0.68482 105.904 1.90381C104.685 3.12279 104 4.77609 104 6.5C104 25.6685 87.2105 32.5 71.5 32.5H26C19.1044 32.5 12.4912 35.2393 7.61522 40.1152C2.73928 44.9912 0 51.6044 0 58.5L0 71.5C0 78.3956 2.73928 85.0088 7.61522 89.8848C12.4912 94.7607 19.1044 97.5 26 97.5H71.5C87.2105 97.5 104 104.332 104 123.5C104 125.224 104.685 126.877 105.904 128.096C107.123 129.315 108.776 130 110.5 130C112.224 130 113.877 129.315 115.096 128.096C116.315 126.877 117 125.224 117 123.5ZM53.209 110.5H26C22.9737 110.488 19.9591 110.124 17.017 109.415L33.267 145.698C34.6318 148.764 36.8562 151.369 39.671 153.198C42.4859 155.026 45.7704 156 49.127 156C51.7975 155.996 54.4247 155.325 56.7691 154.046C59.1136 152.767 61.1007 150.922 62.5493 148.678C63.998 146.435 64.8622 143.864 65.0632 141.201C65.2642 138.538 64.7956 135.867 63.7 133.432L53.209 110.5Z" fill="#8F6040"/>
</g>
<defs>
<clipPath id="clip0_469_722">
<rect width="156" height="156" fill="white"/>
</clipPath>
</defs>
</svg>
