<svg width="156" height="156" viewBox="0 0 156 156" fill="none" xmlns="http://www.w3.org/2000/svg">
<g clip-path="url(#clip0_469_725)">
<path d="M45.7871 117.5L53.5801 134.533V134.534C53.991 135.448 54.1672 136.45 54.0918 137.449C54.0163 138.448 53.6918 139.412 53.1484 140.254C52.6051 141.095 51.8597 141.787 50.9805 142.267C50.1024 142.746 49.1184 142.997 48.1182 142.999C46.6983 142.997 45.3089 142.585 44.1182 141.812C42.9249 141.036 41.9819 139.932 41.4033 138.632L41.3936 138.61L31.9385 117.5H45.7871ZM106 99.1553C103.797 96.3579 101.154 93.9663 98.1855 91.9893C89.8481 86.4357 79.5698 84.5 70.5 84.5H25C20.7565 84.5 16.6871 82.8141 13.6865 79.8135C10.6859 76.8129 9 72.7435 9 68.5V55.5L9.00488 55.1025C9.10664 51.0031 10.7798 47.0933 13.6865 44.1865C16.6871 41.1859 20.7565 39.5 25 39.5H70.5C79.5698 39.5 89.8481 37.5643 98.1855 32.0107C101.154 30.0336 103.797 27.6414 106 24.8438V99.1553Z" fill="#8F6040" stroke="#8F6040" stroke-width="20"/>
<line x1="162.071" y1="-0.928932" x2="1.07107" y2="160.071" stroke="#8F6040" stroke-width="20"/>
</g>
<defs>
<clipPath id="clip0_469_725">
<rect width="156" height="156" fill="white"/>
</clipPath>
</defs>
</svg>
